<svg id="Ebene_1" data-name="Ebene 1" 
    xmlns="http://www.w3.org/2000/svg" width="20" height="20" viewBox="0 0 20 20">
    <path class="cls-1" d="M13.9,2.11L11.79,3.33,3.33,8.21,1.22,9.43a2.45,2.45,0,0,0-.89,3.33L2.77,17a2.45,2.45,0,0,0,3.33.89l2.11-1.22,8.45-4.88,2.11-1.22a2.45,2.45,0,0,0,.89-3.33L17.23,3A2.45,2.45,0,0,0,13.9,2.11ZM10.69,12.42l-1.59.92L8.19,11.75l1.59-.92ZM9.17,9.78l-1.58.92L6.67,9.11l1.58-.92Zm4.17,1.12-1.58.92-0.92-1.59,1.58-.92ZM11.81,8.25l-1.59.92L9.31,7.58l1.59-.92Z"/>
    <path class="cls-1" d="M11.79,3.33L3.33,8.21l4.88,8.45h0l8.45-4.88ZM9.31,7.58l1.59-.92,0.92,1.58-1.59.92L9.31,7.58h0ZM6.67,9.11h0l1.58-.92L9.17,9.78l-1.58.92Zm2.44,4.23L8.19,11.75h0l1.59-.92,0.92,1.58Zm1.73-3.11h0l1.58-.92,0.92,1.59-1.58.92Z"/>
    <path class="cls-1" d="M2.72,7.16l8.45-4.88L10.57,1.22A2.45,2.45,0,0,0,7.23.33L3,2.77A2.45,2.45,0,0,0,2.11,6.1Z"/>
    <path class="cls-1" d="M17.28,12.84L8.82,17.72h0l0.61,1.06a2.45,2.45,0,0,0,3.33.89L17,17.23a2.45,2.45,0,0,0,.89-3.33Z"/>
</svg>